<?xml version="1.0" encoding="UTF-8"?>
<svg width="600px" height="600px" viewBox="0 0 600 600" version="1.1" xmlns="http://www.w3.org/2000/svg" xmlns:xlink="http://www.w3.org/1999/xlink">
    <title>assets/icon</title>
    <g id="/assets/icon" stroke="none" fill="none" fill-rule="evenodd" stroke-width="1">
        <g id="Matter" fill="#303031">
            <path d="M530.655478,270.471187 C391.449828,309.631864 308.855666,456.585569 345.446438,600 L408.677228,562.486303 C403.57132,529.513959 406.64502,495.748852 417.616843,464.319962 L565.27365,551.851866 L600,531.252839 L600,490.138524 L452.20797,402.494989 C473.228786,377.025326 500.162433,357.411596 530.519703,345.470858 L530.655478,270.471187 Z" id="Path" fill-rule="nonzero"></path>
            <path d="M254.852654,600 C291.446129,456.53256 208.76239,309.547955 69.4805729,270.471187 L69.4805729,345.470858 C99.8406577,357.403205 126.776899,377.019714 147.792306,402.494989 L0,490.138524 L0,531.364471 L34.7538915,551.851866 L182.518987,464.208331 C193.50218,495.634386 196.578142,529.40227 191.458769,562.374671 L254.852654,600 Z" id="Path" fill-rule="nonzero"></path>
            <path d="M178.171323,154.771781 C203.409329,175.803785 233.413419,189.946825 265.395681,195.886154 L265.395681,20.5994238 L300.149518,0 L334.87642,20.5994238 L334.87642,195.886154 C366.864093,189.941155 396.876406,175.80095 422.127769,154.771781 L485.222784,192.257698 C382.607904,296.542351 217.392428,296.542351 114.777437,192.257698 L178.171323,154.771781 Z" id="Path" fill-rule="nonzero"></path>
        </g>
    </g>
</svg>